<?xml version="1.0" encoding="UTF-8"?>
<svg id="Camada_2" data-name="Camada 2" xmlns="http://www.w3.org/2000/svg" viewBox="0 0 590 457">
  <defs>
    <style>
      .cls-1 {
        fill: #131313;
      }

      .cls-2 {
        opacity: .43;
      }

      .cls-2, .cls-3 {
        fill: #cedde0;
      }

      .cls-4 {
        font-family: KristenITC-Regular, 'Kristen ITC';
        font-size: 31px;
      }

      .cls-3 {
        opacity: .42;
      }
    </style>
  </defs>
  <text class="cls-4" transform="translate(215.52 303.45)"><tspan x="0" y="0">DADONE</tspan><tspan x="-32.62" y="50">PAPELARIAS</tspan></text>
  <g>
    <g>
      <path class="cls-1" d="m241.34,165.92c7.34,5.04,12.07,11.9,15,20,34.72-34.77,16.08-59.42-15-20Z"/>
      <path class="cls-1" d="m362.02,93.92h-96.78c-32.53,0-58.9,26.37-58.9,58.9v82.24c17.74-15.28,33.8-30.1,47-44.14-2.67-8.53-9.28-15.77-19-22,13.84-23.83,27.51-34.06,41-29,16.63,8.54,4.64,31.36-15,58-17.68,21.75-35.48,41.76-53.52,58.43.78,2.37,2.46,4.33,4.64,5.47,41.08-40.69,75.21-80.1,72.88-112.9l77,87c3.95,8.01,4.52,15.17,1.49,21.42,12.85-7.34,21.51-21.17,21.51-37.02v-104.08c0-12.33-9.99-22.32-22.32-22.32Zm-77.68,47l-7-6c4.87-9.04,10.69-13.41,18-13,1.18,5.01.5,8.67-2,13-3.21.79-6.26,2.47-9,6Zm84,102c-.14-4.08-.65-7.87-2-11l-75-85c6.69-8.3,8.6-16.27,7-24l78,84c2.93,12.23-1.57,24.15-8,36Z"/>
    </g>
    <path class="cls-2" d="m360.21,258.72c-5.59,2.69-11.85,4.2-18.47,4.2h-125.85c-.18,0-.36,0-.53-.02,17.65-17.65,33.67-34.8,46.17-50.87l39.81,36.89-36.03-41.87c2.56-3.43,4.93-6.81,7.11-10.13l53.92,50-49.79-56.62c1.73-2.91,3.28-5.78,4.65-8.58l61.14,57.2-57.31-66.2c2.11-5.92,3.27-11.53,3.31-16.8l71,81c3.34,7.52,4.25,14.84.87,21.8Z"/>
    <path class="cls-3" d="m295.34,121.92c1.18,5.01.5,8.67-2,13-3.21.79-6.26,2.47-9,6l-7-6c4.87-9.04,10.69-13.41,18-13Z"/>
  </g>
</svg>