<?xml version="1.0" encoding="UTF-8"?>
<svg id="Camada_2" data-name="Camada 2" xmlns="http://www.w3.org/2000/svg" viewBox="0 0 590 543">
  <defs>
    <style>
      .cls-1 {
        font-family: KristenITC-Regular, 'Kristen ITC';
        font-size: 62.39px;
      }

      .cls-2 {
        fill: #131313;
      }

      .cls-3 {
        opacity: .43;
      }

      .cls-3, .cls-4 {
        fill: #cedde0;
      }

      .cls-4 {
        opacity: .42;
      }
    </style>
  </defs>
  <text class="cls-1" transform="translate(117.77 421.66) scale(1.11 1)"><tspan x="0" y="0">DADONE</tspan><tspan x="-65.65" y="100.62">PAPELARIAS</tspan></text>
  <g>
    <g>
      <path class="cls-2" d="m175.21,144.9c16.32,10.15,26.84,23.95,33.37,40.25,77.24-69.96,35.78-119.57-33.37-40.25Z"/>
      <path class="cls-2" d="m443.68,0h-215.3C156.01,0,97.35,53.07,97.35,118.53v165.5c39.46-30.75,75.19-60.57,104.56-88.83-5.94-17.17-20.64-31.74-42.27-44.27,30.79-47.96,61.2-68.54,91.21-58.36,37,17.19,10.32,63.11-33.37,116.72-39.33,43.77-78.93,84.04-119.06,117.59,1.74,4.77,5.47,8.71,10.32,11.01,91.39-81.89,167.31-161.2,162.13-227.21l171.3,175.08c8.79,16.12,10.06,30.53,3.31,43.11,28.59-14.77,47.85-42.6,47.85-74.5V44.92c0-24.81-22.22-44.92-49.65-44.92Zm-172.81,94.59l-15.57-12.07c10.83-18.19,23.78-26.99,40.04-26.16,2.63,10.08,1.11,17.45-4.45,26.16-7.14,1.59-13.93,4.97-20.02,12.07Zm186.87,205.27c-.31-8.21-1.45-15.84-4.45-22.14l-166.85-171.06c14.88-16.7,19.13-32.74,15.57-48.3l173.52,169.05c6.52,24.61-3.49,48.6-17.8,72.45Z"/>
    </g>
    <path class="cls-3" d="m439.65,331.65c-12.44,5.41-26.36,8.45-41.09,8.45H118.59c-.4,0-.8,0-1.18-.04,39.26-35.52,74.9-70.03,102.71-102.37l88.56,74.24-80.15-84.26c5.7-6.9,10.97-13.7,15.82-20.39l119.95,100.62-110.76-113.94c3.85-5.86,7.3-11.63,10.34-17.27l136.01,115.11-127.49-133.22c4.69-11.91,7.27-23.2,7.36-33.81l157.95,163.01c7.43,15.13,9.45,29.86,1.94,43.87Z"/>
    <path class="cls-4" d="m295.34,56.35c2.63,10.08,1.11,17.45-4.45,26.16-7.14,1.58-13.93,4.97-20.02,12.07l-15.57-12.07c10.84-18.2,23.79-26.99,40.04-26.16Z"/>
  </g>
</svg>